<svg id="Layer_1" data-name="Layer 1" xmlns="http://www.w3.org/2000/svg" viewBox="0 0 200 200"><defs><style>.cls-1{fill:#00aced;}.cls-2{fill:#fff;}</style></defs><title>twitter-header-icon-hover</title><rect class="cls-1" width="200" height="200"/><path class="cls-2" d="M166.66,58.65A54.61,54.61,0,0,1,151,63a27.43,27.43,0,0,0,12-15.13,54.71,54.71,0,0,1-17.36,6.64A27.38,27.38,0,0,0,99,79.41,77.62,77.62,0,0,1,42.62,50.83a27.41,27.41,0,0,0,8.47,36.53,27.25,27.25,0,0,1-12.39-3.42v0.35a27.38,27.38,0,0,0,21.94,26.82,27.54,27.54,0,0,1-7.21,1,27,27,0,0,1-5.15-.5,27.39,27.39,0,0,0,25.55,19,54.87,54.87,0,0,1-34,11.71,56,56,0,0,1-6.52-.38,77.46,77.46,0,0,0,41.94,12.29c50.31,0,77.82-41.68,77.82-77.83,0-1.18,0-2.36-.07-3.54A55.65,55.65,0,0,0,166.66,58.65Z"/></svg>