<?xml version="1.0" encoding="utf-8"?>
<!-- Generator: Adobe Illustrator 19.2.0, SVG Export Plug-In . SVG Version: 6.00 Build 0)  -->
<svg version="1.1" id="Layer_1" xmlns="http://www.w3.org/2000/svg" xmlns:xlink="http://www.w3.org/1999/xlink" x="0px" y="0px"
	 viewBox="0 0 800 800" style="enable-background:new 0 0 800 800;" xml:space="preserve">
<style type="text/css">
	.st0{fill:#FFFFFF;stroke:#000000;stroke-miterlimit:10;}
	.st1{fill:#0E0E0E;}
</style>
<title>cast-female-avatar</title>
<rect x="-66.2" y="-36.2" class="st0" width="1014.1" height="924.1"/>
<path class="st1" d="M664,676.1l-19.9-0.7c0,0-59.6-12.5-105.4-36.8c0-0.1,0-0.2,0-0.3c-0.1-0.2-7.7-24.2-33.3-23.2
	c-0.2,0-0.3,0-0.5,0.1c-8-7.7-13.8-16-16.4-25.1l-0.4-12.6l22.1,1.8c46.9,7.5,95.2-27.1,95.2-27.1c-24.3-7.2-17.4-25.3-3.6-63.4
	s-15.6-79.6-15.6-79.6c21.6-3.6,20-50.7,0-95.9S550,187.2,550,187.2c-41.6-109.8-126.7-102-126.7-102l-7.3-0.1h-30.4l-7.2,0.1
	c0,0-85.1-7.8-126.7,102c0,0-16.1,80.8-36.1,126.1s-21.6,92.3,0,95.9c0,0-29.3,41.6-15.6,79.6s20.6,56.1-3.6,63.3
	c0,0,48.3,34.6,95.2,27.1l22.1-1.8l-0.4,12.6c-2.6,9.1-8.5,17.4-16.4,25.1c-0.1-0.1-0.3-0.1-0.5-0.1c-25.6-1.2-33.3,22.9-33.4,23.1
	c0,0.1,0,0.2,0,0.3c-45.8,24.3-105.4,36.8-105.4,36.8l-19.9,0.7C15,692.4,21.8,804,21.8,804h758.1C779.8,804,786.6,692.4,664,676.1z
	"/>
</svg>
