<?xml version="1.0" encoding="utf-8"?>
<!-- Generator: Adobe Illustrator 19.2.0, SVG Export Plug-In . SVG Version: 6.00 Build 0)  -->
<svg version="1.1" id="Layer_1" xmlns="http://www.w3.org/2000/svg" xmlns:xlink="http://www.w3.org/1999/xlink" x="0px" y="0px"
	 viewBox="0 0 800 800" style="enable-background:new 0 0 800 800;" xml:space="preserve">
<style type="text/css">
	.st0{fill:#FFFFFF;}
	.st1{fill:#0E0E0E;}
</style>
<title>cast-male-avatar</title>
<rect x="-40" y="-60" class="st0" width="956" height="938"/>
<path class="st1" d="M401,91.3c44.2-22.5,71.9,14.9,71.9,14.9c62.2,5.5,62.2,53.9,62.2,53.9c42.9,19.4,6.9,76.1,6.9,76.1
	c9.7,24.1,5.5,41.5,5.5,41.5c-12.4,34.6-6.9,58.1-6.9,58.1c2.8-5.5,15.2-8.3,15.2-8.3c23.5,6.9-12.4,53.4-12.4,53.4
	c-6.9,16-8.3,26.9-8.3,26.9c0,20.7-18,20.7-18,20.7l-4.2,36c0,23.5-15.2,34.6-15.2,34.6c0,83,30.4,85.7,30.4,85.7
	c13.8,0,26.3,13.8,26.3,13.8c44.2,41.5,183.9,94,183.9,94c106.5,26.3,112,112,112,112H-48.4c0,0,5.5-85.7,112-112
	c0,0,139.7-52.5,183.9-94c0,0,12.5-13.8,26.3-13.8c0,0,30.4-2.8,30.4-85.7c0,0-15.2-11.1-15.2-34.6l-4.1-36c0,0-18,0-18-20.7
	c0,0-1.4-10.8-8.3-26.9c0,0-36-46.4-12.4-53.4c0,0,12.4,2.8,15.2,8.3c0,0,5.5-23.5-6.9-58.1c0,0-4.1-17.4,5.5-41.5
	c0,0-36-56.7,6.9-76.1c0,0,0-48.4,62.2-53.9C329,106.2,356.7,68.9,401,91.3L401,91.3L401,91.3z"/>
</svg>
