<?xml version="1.0" encoding="utf-8"?>
<!-- Generator: Adobe Illustrator 19.2.0, SVG Export Plug-In . SVG Version: 6.00 Build 0)  -->
<svg version="1.1" id="Layer_1" xmlns="http://www.w3.org/2000/svg" xmlns:xlink="http://www.w3.org/1999/xlink" x="0px" y="0px"
	 viewBox="0 0 232 188.3" style="enable-background:new 0 0 232 188.3;" xml:space="preserve">
<style type="text/css">
	.st0{fill:#F8EBD2;stroke:#333333;stroke-width:7;stroke-miterlimit:10;}
	.st1{fill:#F8EBD2;}
	.st2{fill:none;stroke:#333333;stroke-width:3;stroke-miterlimit:10;}
	.st3{fill:#333333;}
	.st4{fill:#C13838;}
	.st5{font-family:'FORQUE';}
	.st6{font-size:81.8043px;}
	.st7{letter-spacing:1;}
	.st8{font-size:69.5337px;}
	.st9{fill:none;}
	.st10{font-size:65.4434px;}
</style>
<g>
	<g>
		
			<ellipse transform="matrix(0.9659 -0.2588 0.2588 0.9659 -20.3634 33.3012)" class="st0" cx="116.3" cy="94" rx="110.2" ry="84.5"/>
		
			<rect x="28.9" y="150.1" transform="matrix(0.9659 -0.2588 0.2588 0.9659 -39.1387 14.3804)" class="st1" width="12.3" height="11.5"/>
		
			<ellipse transform="matrix(0.9659 -0.2588 0.2588 0.9659 -22.1549 61.1273)" class="st2" cx="221.1" cy="114.7" rx="5.5" ry="5.5"/>
		
			<ellipse transform="matrix(0.9659 -0.2588 0.2588 0.9659 -20.3634 33.3012)" class="st1" cx="116.3" cy="94" rx="107.7" ry="82.6"/>
		
			<rect x="16.8" y="123.2" transform="matrix(0.9659 -0.2588 0.2588 0.9659 -38.0499 9.7622)" class="st3" width="2.5" height="52.4"/>
		
			<rect x="23.7" y="169" transform="matrix(0.9659 -0.2588 0.2588 0.9659 -42.8037 15.3263)" class="st3" width="26.2" height="2.5"/>
		<text transform="matrix(0.9659 -0.2588 0.2588 0.9659 24.9091 172.141)" class="st4 st5 st6 st7">louder</text>
		<text transform="matrix(0.9659 -0.2588 0.2588 0.9659 217.5096 120.5362)" class="st4 st5 st8">!</text>
		<g>
			
				<rect x="28.3" y="44.3" transform="matrix(0.9659 -0.2588 0.2588 0.9659 -15.1676 31.1564)" class="st9" width="164.9" height="57.8"/>
			<text transform="matrix(0.9659 -0.2588 0.2588 0.9659 48.645 100.7727)" class="st3 st5 st10">speak</text>
		</g>
	</g>
</g>
</svg>
