<?xml version="1.0" encoding="utf-8"?>
<!-- Generator: Adobe Illustrator 19.2.0, SVG Export Plug-In . SVG Version: 6.00 Build 0)  -->
<svg version="1.1" id="Layer_1" xmlns="http://www.w3.org/2000/svg" xmlns:xlink="http://www.w3.org/1999/xlink" x="0px" y="0px"
	 viewBox="0 0 218.5 186.7" style="enable-background:new 0 0 218.5 186.7;" xml:space="preserve">
<style type="text/css">
	.st0{fill:#F8EBD2;stroke:#333333;stroke-width:7;stroke-miterlimit:10;}
	.st1{fill:#F8EBD2;}
	.st2{fill:none;stroke:#333333;stroke-width:3;stroke-miterlimit:10;}
	.st3{fill:#333333;}
	.st4{fill:#C13838;}
	.st5{font-family:'FORQUE';}
	.st6{font-size:81.8043px;}
	.st7{letter-spacing:2;}
	.st8{font-size:69.5337px;}
	.st9{letter-spacing:1;}
	.st10{fill:none;}
	.st11{font-size:65.4434px;}
</style>
<g>
	<g>
		
			<ellipse transform="matrix(0.9659 -0.2588 0.2588 0.9659 -21.0174 32.3288)" class="st0" cx="112.3" cy="96" rx="110.2" ry="84.5"/>
		
			<rect x="24.9" y="152.1" transform="matrix(0.9659 -0.2588 0.2588 0.9659 -39.7948 13.4092)" class="st1" width="12.3" height="11.5"/>
		
			<ellipse transform="matrix(0.9659 -0.2588 0.2588 0.9659 -22.8119 60.1741)" class="st2" cx="217.1" cy="116.7" rx="5.5" ry="5.5"/>
		
			<ellipse transform="matrix(0.9659 -0.2588 0.2588 0.9659 -21.0174 32.3288)" class="st1" cx="112.3" cy="96" rx="107.7" ry="82.6"/>
		
			<rect x="12.8" y="125.2" transform="matrix(0.9659 -0.2588 0.2588 0.9659 -38.701 8.7955)" class="st3" width="2.5" height="52.4"/>
		
			<rect x="19.7" y="171" transform="matrix(0.9659 -0.2588 0.2588 0.9659 -43.4518 14.3461)" class="st3" width="26.2" height="2.5"/>
		<text transform="matrix(0.9659 -0.2588 0.2588 0.9659 20.9091 174.141)"><tspan x="0" y="0" class="st4 st5 st6 st7">louder</tspan><tspan x="199.4" y="0" class="st4 st5 st8 st9">!</tspan></text>
		<g>
			
				<rect x="24.3" y="46.3" transform="matrix(0.9659 -0.2588 0.2588 0.9659 -15.8219 30.1768)" class="st10" width="164.9" height="57.8"/>
			<text transform="matrix(0.9659 -0.2588 0.2588 0.9659 44.645 102.7727)" class="st3 st5 st11 st9">speak</text>
		</g>
	</g>
</g>
</svg>
