<svg id="Layer_1" data-name="Layer 1" xmlns="http://www.w3.org/2000/svg" viewBox="0 0 200 200"><defs><style>.cls-1{fill:#fff;}</style></defs><title>tumblr-header-icon</title><path class="cls-1" d="M107.39,32.42V65.6h31.14V86.21H107.39v33.67q0,11.41,1.2,14.65a10,10,0,0,0,4.5,5.18,19,19,0,0,0,10,2.62q10,0,19.82-6.49v20.7a78.21,78.21,0,0,1-15.23,5.56,64.77,64.77,0,0,1-14.75,1.59A50.85,50.85,0,0,1,97,161.42a34.39,34.39,0,0,1-11.8-6.48,23.44,23.44,0,0,1-6.77-9q-1.89-4.72-1.89-13.73v-46H62V67.63a38.4,38.4,0,0,0,13.25-7.2,35.82,35.82,0,0,0,8.85-11.27q3.35-6.58,4.6-16.74h18.68Z"/></svg>