<?xml version="1.0" encoding="utf-8"?>
<!-- Generator: Adobe Illustrator 19.2.0, SVG Export Plug-In . SVG Version: 6.00 Build 0)  -->
<svg version="1.1" id="Layer_1" xmlns="http://www.w3.org/2000/svg" xmlns:xlink="http://www.w3.org/1999/xlink" x="0px" y="0px"
	 viewBox="0 0 200 200" style="enable-background:new 0 0 200 200;" xml:space="preserve">
<style type="text/css">
	.st0{fill:#333333;}
	.st1{fill:#EDF0F3;}
</style>
<g>
	<rect y="0" class="st0" width="200" height="200"/>
	<path class="st1" d="M107.4,32.4v33.2h31.1v20.6h-31.1v33.7c0,7.6,0.4,12.5,1.2,14.6c0.8,2.2,2.3,3.9,4.5,5.2
		c2.9,1.7,6.2,2.6,10,2.6c6.6,0,13.3-2.2,19.8-6.5v20.7c-5.6,2.6-10.7,4.5-15.2,5.6c-4.5,1.1-9.5,1.6-14.8,1.6
		c-6,0-11.3-0.8-15.9-2.3c-4.6-1.5-8.5-3.7-11.8-6.5c-3.3-2.8-5.5-5.8-6.8-9c-1.3-3.1-1.9-7.7-1.9-13.7v-46H62V67.6
		c5.2-1.7,9.6-4.1,13.2-7.2c3.7-3.1,6.6-6.9,8.9-11.3c2.2-4.4,3.8-10,4.6-16.7H107.4z"/>
</g>
</svg>
