<?xml version="1.0" encoding="utf-8"?>
<!-- Generator: Adobe Illustrator 19.2.0, SVG Export Plug-In . SVG Version: 6.00 Build 0)  -->
<svg version="1.1" id="Layer_1" xmlns="http://www.w3.org/2000/svg" xmlns:xlink="http://www.w3.org/1999/xlink" x="0px" y="0px"
	 viewBox="0 0 200 200" style="enable-background:new 0 0 200 200;" xml:space="preserve">
<style type="text/css">
	.st0{fill:#FFFFFF;}
	.st1{fill:#333333;}
</style>
<g>
	<rect class="st0" width="200" height="200"/>
	<path class="st1" d="M166.7,58.7c-4.9,2.2-10.2,3.6-15.7,4.3c5.6-3.4,10-8.7,12-15.1c-5.3,3.1-11.1,5.4-17.4,6.6
		c-5-5.3-12.1-8.6-20-8.6c-15.1,0-27.4,12.2-27.4,27.4c0,2.1,0.2,4.2,0.7,6.2c-22.7-1.1-42.9-12-56.4-28.6
		c-2.4,4.1-3.7,8.7-3.7,13.8c0,9.5,4.8,17.9,12.2,22.8c-4.5-0.1-8.7-1.4-12.4-3.4v0.3c0,13.3,9.4,24.3,21.9,26.8
		c-2.3,0.6-4.7,1-7.2,1c-1.8,0-3.5-0.2-5.1-0.5c3.5,10.9,13.6,18.8,25.5,19c-9.4,7.3-21.1,11.7-34,11.7c-2.2,0-4.4-0.1-6.5-0.4
		c12.1,7.8,26.5,12.3,41.9,12.3c50.3,0,77.8-41.7,77.8-77.8c0-1.2,0-2.4-0.1-3.5C158.4,69,163,64.1,166.7,58.7z"/>
</g>
</svg>
